<?xml version="1.0" standalone="no"?><!DOCTYPE svg PUBLIC "-//W3C//DTD SVG 1.1//EN" "http://www.w3.org/Graphics/SVG/1.1/DTD/svg11.dtd"><svg t="1605100048944" class="icon" viewBox="0 0 1024 1024" version="1.1" xmlns="http://www.w3.org/2000/svg" p-id="3974" xmlns:xlink="http://www.w3.org/1999/xlink" width="200" height="200"><defs><style type="text/css"></style></defs><path d="M404 95c42.526 0 77 34.474 77 77v232c0 42.526-34.474 77-77 77H172c-42.526 0-77-34.474-77-77V172c0-42.526 34.474-77 77-77h232z m-18 65H190c-16.569 0-30 13.431-30 30v196c0 16.569 13.431 30 30 30h196c16.569 0 30-13.431 30-30V190c0-16.569-13.431-30-30-30zM853 95c42.526 0 77 34.474 77 77v232c0 42.526-34.474 77-77 77H621c-42.526 0-77-34.474-77-77V172c0-42.526 34.474-77 77-77h232z m-18 65H639c-16.569 0-30 13.431-30 30v196c0 16.569 13.431 30 30 30h196c16.569 0 30-13.431 30-30V190c0-16.569-13.431-30-30-30zM853 544c42.526 0 77 34.474 77 77v232c0 42.526-34.474 77-77 77H621c-42.526 0-77-34.474-77-77V621c0-42.526 34.474-77 77-77h232z m-18 65H639c-16.569 0-30 13.431-30 30v196c0 16.569 13.431 30 30 30h196c16.569 0 30-13.431 30-30V639c0-16.569-13.431-30-30-30zM404 544c42.526 0 77 34.474 77 77v232c0 42.526-34.474 77-77 77H172c-42.526 0-77-34.474-77-77V621c0-42.526 34.474-77 77-77h232z m-18 65H190c-16.569 0-30 13.431-30 30v196c0 16.569 13.431 30 30 30h196c16.569 0 30-13.431 30-30V639c0-16.569-13.431-30-30-30z" fill="#707070" p-id="3975"></path></svg>
