<?xml version="1.0" standalone="no"?><!DOCTYPE svg PUBLIC "-//W3C//DTD SVG 1.1//EN" "http://www.w3.org/Graphics/SVG/1.1/DTD/svg11.dtd"><svg t="1605099997471" class="icon" viewBox="0 0 1024 1024" version="1.1" xmlns="http://www.w3.org/2000/svg" p-id="2926" xmlns:xlink="http://www.w3.org/1999/xlink" width="200" height="200"><defs><style type="text/css"></style></defs><path d="M1000.4 453.4l-430-430C555.8 8.8 536.2 0.6 515.4 0.6c-20.8 0-40.2 8-55 22.8l-430 430c-30.2 30.4-30.2 79.6 0 110l10.8 10.6L146 606.6v309c0 59.8 48.6 108.4 108.4 108.4H460V820.6c0-7.8 6.4-14.2 14.2-14.2h91c7.8 0 14.2 6.4 14.2 14.2V1024h191.2c59.8 0 108.4-48.6 108.4-108.4V607l110.4-32.8 10.8-10.8c14.8-14.6 22.8-34.2 22.8-55 0.2-20.8-7.8-40.2-22.6-55zM770.8 960.6h-127.8v-139.8c0-42.8-34.8-77.8-77.8-77.8h-91c-42.8 0-77.8 34.8-77.8 77.8v139.8h-142.2c-24.8 0-45-20.2-45-44.8V560l-134.2-41.8c-5.2-5.6-5-14.4 0.4-19.8l430-430c2.6-2.6 6.2-4.2 10-4.2s7.4 1.4 10 4.2l430 430c2.6 2.6 4.2 6.2 4.2 10 0 3.6-1.2 7-3.8 9.6l-140.4 41.6v356c0.2 24.8-20 45-44.6 45z" fill="#f439f0" p-id="2927"></path></svg>